<svg width="36" height="36" viewBox="0 0 36 36" fill="none" xmlns="http://www.w3.org/2000/svg">
<path d="M18 36C27.9411 36 36 27.9411 36 18C36 8.05888 27.9411 0 18 0C8.05887 0 0 8.05888 0 18C0 27.9411 8.05887 36 18 36Z" fill="url(#paint0_linear_3603_3804)"/>
<path d="M18.0001 3.78076C10.1467 3.78076 3.78125 10.1462 3.78125 17.9996C3.78125 25.853 10.1467 32.2185 18.0001 32.2185C25.8535 32.2185 32.2189 25.853 32.2189 17.9996C32.2189 10.1462 25.8535 3.78076 18.0001 3.78076ZM18.0001 30.8095C10.9266 30.8095 5.1902 25.0767 5.1902 17.9996C5.1902 10.9225 10.923 5.18971 18.0001 5.18971C25.0736 5.18971 30.81 10.9225 30.81 17.9996C30.81 25.0767 25.0736 30.8095 18.0001 30.8095Z" fill="white"/>
<path d="M16.6773 14.0142C17.4752 14.7941 18.23 15.5345 18.9848 16.2749C19.5024 16.7853 20.0235 17.2921 20.5411 17.8025C21.871 19.1072 23.1901 20.4155 24.5343 21.7059C24.75 21.9143 24.8255 22.112 24.8219 22.3995C24.8075 23.5353 24.8111 24.6711 24.8183 25.8069C24.8183 25.9686 24.7715 26.0046 24.6134 26.0046C20.2032 26.001 15.7895 26.001 11.3794 26.0046C11.2248 26.0046 11.1745 25.9758 11.1745 25.8105C11.1817 24.6064 11.1817 23.3988 11.1745 22.1947C11.1745 22.0257 11.2176 21.9862 11.3866 21.9862C13.9421 21.9934 16.5012 21.9898 19.0567 21.9898C19.125 21.9898 19.1933 21.9898 19.3263 21.9898C19.204 21.8748 19.1214 21.8029 19.0387 21.7238C17.7807 20.491 16.5263 19.2618 15.2683 18.0289C13.9493 16.735 12.6302 15.4375 11.3075 14.1472C11.214 14.0537 11.1745 13.9638 11.1745 13.8309C11.1781 12.6268 11.1817 11.4191 11.1709 10.215C11.1709 10.0317 11.2284 9.99939 11.3937 9.99939C15.7931 10.003 20.1925 10.003 24.5918 9.99939C24.7643 9.99939 24.8147 10.0389 24.8147 10.2186C24.8075 11.4047 24.8075 12.5908 24.8147 13.7769C24.8147 13.9638 24.7787 14.0214 24.5774 14.0214C22.0255 14.0142 19.4772 14.0178 16.9253 14.0178C16.8642 14.0142 16.7959 14.0142 16.6773 14.0142Z" fill="white"/>
<defs>
<linearGradient id="paint0_linear_3603_3804" x1="29.5711" y1="31.7905" x2="6.43131" y2="4.21361" gradientUnits="userSpaceOnUse">
<stop offset="0.0654" stop-color="#FF9B43"/>
<stop offset="0.1144" stop-color="#F48856"/>
<stop offset="0.312" stop-color="#CC3F9E"/>
<stop offset="0.4538" stop-color="#B311CB"/>
<stop offset="0.5249" stop-color="#A900DC"/>
<stop offset="0.7631" stop-color="#8B1EB3"/>
<stop offset="0.8757" stop-color="#6E1EB3"/>
<stop offset="1" stop-color="#501EB3"/>
</linearGradient>
</defs>
</svg>
